<?xml version="1.0" encoding="utf-8"?>
<!-- Generator: Adobe Illustrator 18.0.0, SVG Export Plug-In . SVG Version: 6.00 Build 0)  -->
<!DOCTYPE svg PUBLIC "-//W3C//DTD SVG 1.1//EN" "http://www.w3.org/Graphics/SVG/1.1/DTD/svg11.dtd">
<svg version="1.1" id="Layer_1" xmlns="http://www.w3.org/2000/svg" xmlns:xlink="http://www.w3.org/1999/xlink" x="0px" y="0px"
	 viewBox="0 0 64 64" enable-background="new 0 0 64 64" xml:space="preserve">
<g>
	<path d="M64,12.9c-2.4,1-4.9,1.7-7.5,2c2.7-1.6,4.8-4,5.8-7c-2.5,1.4-5.3,2.5-8.3,3.1c-2.4-2.5-5.8-4-9.6-4
		c-7.3,0-13.1,5.7-13.1,12.6c0,1,0.1,2,0.3,2.9C20.6,22,10.9,16.9,4.5,9.3c-1.1,1.9-1.8,4-1.8,6.3c0,4.4,2.3,8.2,5.8,10.5
		c-2.2-0.1-4.2-0.6-5.9-1.6c0,0.1,0,0.1,0,0.2c0,6.1,4.5,11.2,10.5,12.4c-1.1,0.3-2.3,0.4-3.5,0.4c-0.8,0-1.7-0.1-2.5-0.2
		c1.7,5,6.5,8.7,12.3,8.8c-4.5,3.4-10.2,5.4-16.3,5.4c-1.1,0-2.1-0.1-3.1-0.2C5.8,54.9,12.7,57,20.1,57c24.2,0,37.4-19.2,37.4-35.9
		c0-0.5,0-1.1,0-1.6C60,17.7,62.2,15.5,64,12.9z"/>
</g>
</svg>
